<?xml version="1.0" encoding="utf-8"?>
<!-- Generator: Adobe Illustrator 22.0.1, SVG Export Plug-In . SVG Version: 6.00 Build 0)  -->
<!DOCTYPE svg PUBLIC "-//W3C//DTD SVG 1.1//EN" "http://www.w3.org/Graphics/SVG/1.1/DTD/svg11.dtd">
<svg version="1.1" id="Layer_1" xmlns="http://www.w3.org/2000/svg" xmlns:xlink="http://www.w3.org/1999/xlink" x="0px" y="0px"
	 viewBox="0 0 300 300" style="enable-background:new 0 0 300 300;" xml:space="preserve">
<style type="text/css">
	.st0{fill:#FFFFFF;}
</style>
<g>
	<path class="st0" d="M61.4,245c15.3,0,30.6,0,45.9,0c3.9,0,6.3,2,6.5,5.3c0.1,2.9-1.7,5.3-4.7,5.8c-0.8,0.1-1.6,0.1-2.3,0.1
		c-30.3,0-60.6,0-90.9,0c-0.4,0-0.8,0-1.2,0c-3.6-0.2-6.2-2.6-6-5.9c0.1-3.2,2.6-5.4,6.1-5.4C30.3,245,45.9,245,61.4,245z"/>
	<path class="st0" d="M46.2,217.7c10.3,0,20.6,0,30.8,0c4.1,0,6.6,2.2,6.5,5.7c0,3.4-2.6,5.6-6.5,5.6c-20.6,0-41.3,0-61.9,0
		c-3.4,0-5.5-1.5-6.2-4.3c-0.6-2.4,0.3-4.7,2.4-6.1c1.2-0.9,2.6-0.9,4.1-0.9C25.6,217.7,35.9,217.7,46.2,217.7z"/>
	<path class="st0" d="M29.4,190.4c4.9,0,9.9,0,14.8,0c3.5,0,6,2.3,6,5.6c0,3.2-2.4,5.7-5.9,5.7c-9.9,0.1-19.8,0-29.7,0
		c-3.5,0-6-2.4-6-5.6c0-3.3,2.5-5.6,6.2-5.7C19.7,190.4,24.5,190.4,29.4,190.4z"/>
	<path class="st0" d="M290.8,218c-2-10.7-6.8-19.5-17.6-23.8c-2.6-1-5.2-2.2-7.8-3.2c-12.4-4.8-25.1-8.5-37.7-12.5
		c-6.1-1.9-9.5-5.4-12-11.1c-8.9-20.1-16.8-40.6-24.8-61.1c-6-15.5-10.9-31.5-19.8-45.8c-2.4-4-5.6-4.9-9.4-2.2
		c-9.3,6.6-14.9,15.5-16.9,26.7c-0.2,1.3-0.8,1.9-1.9,2.2c-3.8,1.1-7.7,2.2-11.6,2.9c-15.2,2.5-24.6-3.1-29.7-17.6
		c-0.8-2.3-1.4-4.6-2.1-7c-1.4-4.6-2.8-9.1-5.6-13.1c-5.9-8.2-14.8-10.8-24.1-6.8c-4.4,1.8-8.3,4.4-12,7.4
		C43.9,64.1,33,77.8,23.9,93c-7,11.7-12.3,24.1-14.8,37.6c-2,11.1,0.4,20.5,8.9,28.2c0.6,0.6,1.2,1.2,1.9,1.8
		c16.1,13.5,34,23.8,54.8,27.6c10.5,1.9,18.8,6.9,25.9,14.5c2.5,2.7,4.8,5.6,6.9,8.6c13.3,19.5,31.1,32.6,54.2,38.4
		c18.7,4.7,37.6,6.3,58.3,6.1c7.8,0,17.2-0.5,26.6-1.6c9.4-1.1,18.6-2.7,27.5-6.1c7.7-2.9,13.5-7.5,16.1-15.6
		C291.8,227.6,291.8,222.8,290.8,218z M274.4,235.2c-4.6,2.8-9.8,4.1-15,5.2c-18.9,3.7-38,4.4-57.2,3.5c-12.7-0.5-25.1-2.4-37.4-5.5
		c-20.4-5-36.1-16.6-47.8-33.8c-1.8-2.6-3.7-5.1-5.7-7.5c-9.3-10.8-20.5-18-35.1-20.5c-18.4-3.2-34-12.7-48.4-24.3
		c-7.9-6.3-9-14.1-6.7-23.2c1.1-4.1,2.2-8.2,3.7-12.1c1.7-4.3,3.6-8.5,5.9-12.8c7.8,6.1,15.2,12.4,22.5,18.7
		c18.7,16.3,35.8,34.2,52.3,52.6c12.8,14.3,27.2,26.7,44.2,35.9c13.7,7.3,28.4,11.6,43.5,14.4c27.9,5.1,56,5.9,84.3,4.4
		c0.4,0,0.8,0,1.4,0C278.1,232.6,276.3,234,274.4,235.2z"/>
</g>
</svg>
